<svg id="Capa_6" data-name="Capa 6" xmlns="http://www.w3.org/2000/svg" viewBox="0 0 979.66 573.63"><defs><style>.cls-1{fill:#e9048c;}.cls-2{fill:#05aced;}.cls-3{fill:#caf29c;}</style></defs><path class="cls-1" d="M432.78,7.32c22.57,58.46,39.41,118.82,58.79,178.33C531.41,308,569.93,430.72,609.86,553c5.74,17.57,1.61,20.5-15.38,20.31-72-.81-143.91-.61-215.85-.16-10.72.07-16.51-2.39-19.85-13.31-16.64-54.32-34-108.41-51.1-162.59,1-6.41,1.15-13.09,3.1-19.19,30.33-94.92,60.49-189.89,91.62-284.54C411.9,64.61,417.29,34.15,432.78,7.32Z"/><path class="cls-2" d="M306.19,396.33c-16.52,51-33.94,101.72-49.1,153.11-5.31,18-12.76,24.54-32.1,24.17-69.34-1.31-138.73-1.05-208.09-.28-17,.19-19.77-3.61-14.49-19.86C50.94,404.3,98.52,254.83,146.82,105.58c10.62-32.81,18.26-66.66,33.08-98.06C198.54,47.84,208.85,91,222.69,133,250.87,218.39,278.26,304.1,306,389.69Z"/><path class="cls-3" d="M306,389.69C278.26,304.1,250.87,218.39,222.69,133,208.85,91,198.54,47.84,179.9,7.52,179.43-.65,185.35.19,190.45.19q116.16,0,232.34,0c3.9,0,7.92-.12,10,4.26-20.78,51.3-35,104.81-52.45,157.22C355,237.55,330.71,313.69,306,389.69Z"/><path class="cls-1" d="M800.14,7.32c22.57,58.46,39.41,118.82,58.79,178.33C898.77,308,937.29,430.72,977.22,553c5.74,17.57,1.61,20.5-15.38,20.31-72-.81-143.91-.61-215.85-.16-10.72.07-16.51-2.39-19.85-13.31-16.64-54.32-34-108.41-51.1-162.59,1-6.41,1.15-13.09,3.1-19.19,30.33-94.92,60.49-189.89,91.62-284.54C779.26,64.61,784.65,34.15,800.14,7.32Z"/><path class="cls-3" d="M671.21,395.63c-8-44.46-25.38-86.18-38.66-129.07C608.07,187.45,582.14,108.8,556.7,30,554.36,22.74,553.91,14.3,546,9.92,545.67.31,551.93.1,559.12.11c75.93.11,151.86,0,227.8.13,5.32,0,12.6-2.28,13.22,7.08-15.49,26.83-20.88,57.29-30.38,86.21-31.13,94.65-61.29,189.62-91.62,284.54-1.95,6.1-2.11,12.78-3.1,19.19Z"/><path class="cls-2" d="M489.22,174.55c18-42.35,28.69-87.14,43.92-130.41,4-11.49,5.23-24.1,12.87-34.22,7.9,4.38,8.35,12.82,10.69,20.07,25.44,78.81,51.37,157.46,75.85,236.57,13.28,42.89,30.62,84.61,38.66,129.07-14.14,57.16-36,111.94-52.22,168.44-2.3,8-7.71,9.3-14.93,9.28q-113.88-.23-227.76-.16c-5.39,0-10.62,0-12.95-6.21,1.69-3.47,3.83-6.78,5-10.41,23.48-72.53,47.36-144.94,70.07-217.71C455.51,284.14,476.19,230.52,489.22,174.55Z"/></svg>